ply
format ascii 1.0
comment Created by Blender 2.69 (sub 0) - www.blender.org, source file: 'SkyBox.blend'
element vertex 24
property float x
property float y
property float z
property float nx
property float ny
property float nz
property float s
property float t
element face 6
property list uchar uint vertex_indices
end_header
-7.184393 7.184393 -7.184393 0.000000 0.000000 1.000000 0.000000 0.400936
-7.184393 -7.184393 -7.184393 0.000000 0.000000 1.000000 0.000000 0.600623
7.184393 -7.184393 -7.184393 0.000000 0.000000 1.000000 1.000010 0.600623
7.184393 7.184393 -7.184393 0.000000 0.000000 1.000000 0.999999 0.400938
-7.184393 7.184393 7.184393 0.000000 0.000000 -1.000000 1.000001 0.600624
7.184393 7.184393 7.184393 0.000000 0.000000 -1.000000 -0.000001 0.600623
7.184393 -7.184393 7.184393 0.000000 0.000000 -1.000000 0.000001 0.400936
-7.184393 -7.184393 7.184393 0.000000 0.000000 -1.000000 0.999998 0.400936
-7.184393 7.184393 -7.184393 1.000000 -0.000000 0.000000 0.999998 -0.000000
-7.184393 7.184393 7.184393 1.000000 -0.000000 0.000000 1.000004 0.199689
-7.184393 -7.184393 7.184393 1.000000 -0.000000 0.000000 0.000005 0.199686
-7.184393 -7.184393 -7.184393 1.000000 -0.000000 0.000000 0.000009 -0.000002
-7.184393 -7.184393 -7.184393 0.000000 1.000000 0.000000 0.999998 0.601404
-7.184393 -7.184393 7.184393 0.000000 1.000000 0.000000 1.000003 0.801092
7.184393 -7.184393 7.184393 0.000000 1.000000 0.000000 -0.000001 0.801092
7.184393 -7.184393 -7.184393 0.000000 1.000000 0.000000 0.000103 0.601426
7.184393 -7.184393 -7.184393 -1.000000 -0.000000 0.000000 1.000000 0.801873
7.184393 -7.184393 7.184393 -1.000000 -0.000000 0.000000 0.999999 1.000000
7.184393 7.184393 7.184393 -1.000000 -0.000000 0.000000 0.000006 1.000001
7.184393 7.184393 -7.184393 -1.000000 -0.000000 0.000000 0.000004 0.801874
-7.184393 7.184393 7.184393 -0.000000 -1.000000 0.000000 0.000003 0.400156
-7.184393 7.184393 -7.184393 -0.000000 -1.000000 0.000000 0.000000 0.200468
7.184393 7.184393 -7.184393 -0.000000 -1.000000 0.000000 1.000000 0.200468
7.184393 7.184393 7.184393 -0.000000 -1.000000 0.000000 0.999999 0.400157
4 0 1 2 3
4 4 5 6 7
4 8 9 10 11
4 12 13 14 15
4 16 17 18 19
4 20 21 22 23
