ply
format ascii 1.0
comment Created by Blender 2.69 (sub 0) - www.blender.org, source file: ''
element vertex 24
property float x
property float y
property float z
property float nx
property float ny
property float nz
property float s
property float t
element face 6
property list uchar uint vertex_indices
end_header
1.910392 1.000000 -1.910393 -0.000000 -0.414294 -0.910143 0.000000 0.000000
1.000000 -1.000000 -1.000000 -0.000000 -0.414294 -0.910143 1.000000 0.000000
-1.000000 -1.000000 -1.000000 -0.000000 -0.414294 -0.910143 1.000000 1.000000
-1.910392 1.000001 -1.910393 -0.000000 -0.414294 -0.910143 0.000000 1.000000
-1.000000 -1.000000 -1.000000 -0.910143 -0.414294 -0.000000 0.000000 0.000000
-1.000000 -1.000000 1.000000 -0.910143 -0.414294 -0.000000 1.000000 0.000000
-1.910393 1.000000 1.910393 -0.910143 -0.414294 -0.000000 1.000000 1.000000
-1.910392 1.000001 -1.910393 -0.910143 -0.414294 -0.000000 0.000000 1.000000
1.910392 1.000000 -1.910393 0.910143 -0.414294 -0.000000 0.000000 0.000000
1.910393 0.999999 1.910393 0.910143 -0.414294 -0.000000 1.000000 0.000000
0.999999 -1.000001 1.000000 0.910143 -0.414294 -0.000000 1.000000 1.000000
1.000000 -1.000000 -1.000000 0.910143 -0.414294 -0.000000 0.000000 1.000000
1.000000 -1.000000 -1.000000 -0.000000 -1.000000 -0.000000 0.000000 0.000000
0.999999 -1.000001 1.000000 -0.000000 -1.000000 -0.000000 1.000000 0.000000
-1.000000 -1.000000 1.000000 -0.000000 -1.000000 -0.000000 1.000000 1.000000
-1.000000 -1.000000 -1.000000 -0.000000 -1.000000 -0.000000 0.000000 1.000000
1.910393 0.999999 1.910393 0.000000 1.000000 0.000000 1.011302 1.011302
1.910392 1.000000 -1.910393 0.000000 1.000000 0.000000 -0.011302 1.011302
-1.910392 1.000001 -1.910393 0.000000 1.000000 0.000000 -0.011302 -0.011302
-1.910393 1.000000 1.910393 0.000000 1.000000 0.000000 1.011302 -0.011302
1.763891 0.923312 1.875485 -0.000000 -0.414294 0.910143 0.000000 0.000000
-1.763890 0.923313 1.875485 -0.000000 -0.414294 0.910143 1.000000 0.000000
-0.923314 -0.923313 1.034908 -0.000000 -0.414294 0.910143 1.000000 1.000000
0.923312 -0.923314 1.034908 -0.000000 -0.414294 0.910143 0.000000 1.000000
4 0 1 2 3
4 4 5 6 7
4 8 9 10 11
4 12 13 14 15
4 16 17 18 19
4 20 21 22 23
